<svg width="466" height="128" viewBox="0 0 466 128" fill="none" xmlns="http://www.w3.org/2000/svg">
<rect x="31.6" y="85" width="86.4" height="26" rx="10" fill="#606060"/>
<rect x="10" y="51" width="86.4" height="26" rx="10" fill="#969696"/>
<rect x="31.6" y="17" width="86.4" height="26" rx="10" fill="white"/>
<path d="M183.071 79.3008C183.071 78.1582 182.866 77.0889 182.456 76.0928C182.075 75.0967 181.416 74.1592 180.479 73.2803C179.512 72.4307 178.252 71.6543 176.699 70.9512C175.176 70.2188 173.271 69.5449 170.986 68.9297C167.441 67.9629 164.321 66.791 161.626 65.4141C158.96 64.0371 156.777 62.5283 155.078 60.8877C153.379 59.2471 152.09 57.4307 151.211 55.4385C150.361 53.4463 149.937 51.2783 149.937 48.9346C149.937 46.2393 150.508 43.793 151.65 41.5957C152.793 39.3984 154.375 37.5234 156.396 35.9707C158.418 34.418 160.806 33.2314 163.56 32.4111C166.313 31.5615 169.302 31.1367 172.524 31.1367C175.864 31.1367 178.911 31.6201 181.665 32.5869C184.448 33.5537 186.836 34.9014 188.828 36.6299C190.82 38.3877 192.373 40.4678 193.486 42.8701C194.6 45.2725 195.156 47.9092 195.156 50.7803H183.115C183.057 49.3447 182.793 48.0264 182.324 46.8252C181.885 45.624 181.226 44.584 180.347 43.7051C179.438 42.8555 178.311 42.1963 176.963 41.7275C175.645 41.2295 174.092 40.9805 172.305 40.9805C170.664 40.9805 169.199 41.1855 167.91 41.5957C166.65 41.9766 165.581 42.5186 164.702 43.2217C163.823 43.9541 163.149 44.8184 162.681 45.8145C162.241 46.7812 162.021 47.8359 162.021 48.9785C162.021 50.1797 162.314 51.2637 162.9 52.2305C163.516 53.1973 164.395 54.0615 165.537 54.8232C166.68 55.6143 168.057 56.332 169.668 56.9766C171.309 57.6211 173.154 58.2217 175.205 58.7783C177.402 59.3936 179.497 60.1406 181.489 61.0195C183.481 61.8984 185.312 62.9092 186.982 64.0518C189.502 65.9268 191.509 68.1094 193.003 70.5996C194.497 73.0898 195.244 75.9609 195.244 79.2129C195.244 82.0254 194.673 84.5303 193.53 86.7275C192.417 88.8955 190.864 90.7266 188.872 92.2207C186.88 93.7441 184.507 94.9014 181.753 95.6924C178.999 96.4541 175.996 96.835 172.744 96.835C169.551 96.835 166.387 96.3662 163.252 95.4287C160.146 94.4619 157.437 93.0557 155.122 91.21C152.925 89.3936 151.182 87.2549 149.893 84.7939C148.633 82.333 148.003 79.4473 148.003 76.1367H160.132C160.19 78.0703 160.527 79.7256 161.143 81.1025C161.758 82.4795 162.622 83.6074 163.735 84.4863C164.819 85.3652 166.123 86.0098 167.646 86.4199C169.199 86.8301 170.898 87.0352 172.744 87.0352C174.385 87.0352 175.835 86.8447 177.095 86.4639C178.384 86.083 179.468 85.5557 180.347 84.8818C181.226 84.208 181.899 83.4023 182.368 82.4648C182.837 81.498 183.071 80.4434 183.071 79.3008ZM224.053 36.8057V48.4512H241.807V57.46H224.053V77.8945C224.053 79.623 224.243 81.0732 224.624 82.2451C225.034 83.3877 225.606 84.2959 226.338 84.9697C227.071 85.6729 227.949 86.1709 228.975 86.4639C230.029 86.7568 231.201 86.9033 232.49 86.9033C233.428 86.9033 234.38 86.8594 235.347 86.7715C236.343 86.6836 237.295 86.5664 238.203 86.4199C239.082 86.3027 239.903 86.1709 240.664 86.0244C241.455 85.8779 242.129 85.7314 242.686 85.585L243.872 93.9785C243.023 94.4766 242.027 94.916 240.884 95.2969C239.741 95.6484 238.526 95.9414 237.237 96.1758C235.947 96.4102 234.6 96.5859 233.194 96.7031C231.817 96.8496 230.454 96.9229 229.107 96.9229C226.499 96.9229 224.126 96.5859 221.987 95.9121C219.878 95.209 218.076 94.125 216.582 92.6602C215.059 91.2246 213.887 89.3936 213.067 87.167C212.246 84.9111 211.836 82.2158 211.836 79.0811V57.46H200.982V48.4512H211.836V36.8057H224.053ZM282.701 96C282.408 95.4141 282.159 94.7402 281.954 93.9785C281.748 93.2168 281.573 92.4111 281.426 91.5615C280.752 92.2939 279.976 92.9824 279.097 93.627C278.218 94.2715 277.251 94.8281 276.197 95.2969C275.113 95.7949 273.926 96.1758 272.637 96.4395C271.348 96.7324 269.956 96.8789 268.462 96.8789C266.031 96.8789 263.789 96.5273 261.739 95.8242C259.717 95.1211 257.974 94.1396 256.509 92.8799C255.044 91.6201 253.902 90.126 253.081 88.3975C252.261 86.6396 251.851 84.7354 251.851 82.6846C251.851 80.0479 252.364 77.7188 253.389 75.6973C254.414 73.6465 255.953 71.9619 258.003 70.6436C259.849 69.4424 262.12 68.5342 264.815 67.9189C267.539 67.2744 270.66 66.9521 274.175 66.9521H280.987V64.1396C280.987 63.0264 280.811 62.0303 280.459 61.1514C280.108 60.2432 279.58 59.4668 278.877 58.8223C278.145 58.1484 277.222 57.6357 276.109 57.2842C275.025 56.9033 273.75 56.7129 272.286 56.7129C270.996 56.7129 269.883 56.874 268.946 57.1963C268.008 57.4893 267.246 57.9141 266.661 58.4707C266.133 58.9688 265.738 59.5693 265.474 60.2725C265.24 60.9756 265.122 61.752 265.122 62.6016H252.906C252.906 60.5801 253.345 58.6611 254.224 56.8447C255.132 55.0283 256.451 53.4316 258.179 52.0547C259.878 50.6777 261.958 49.5938 264.419 48.8027C266.91 47.9824 269.751 47.5723 272.945 47.5723C275.816 47.5723 278.482 47.9238 280.943 48.627C283.433 49.3301 285.586 50.3701 287.403 51.7471C289.219 53.124 290.64 54.8672 291.665 56.9766C292.691 59.0566 293.204 61.4736 293.204 64.2275V84.6182C293.204 87.167 293.365 89.2764 293.687 90.9463C294.009 92.6162 294.478 94.0518 295.093 95.2529V96H282.701ZM271.055 87.4307C272.286 87.4307 273.428 87.2842 274.483 86.9912C275.537 86.6982 276.49 86.3174 277.339 85.8486C278.189 85.3799 278.921 84.8525 279.537 84.2666C280.152 83.6514 280.635 83.0361 280.987 82.4209V74.2471H274.746C272.842 74.2471 271.216 74.4375 269.869 74.8184C268.521 75.1699 267.422 75.668 266.573 76.3125C265.723 76.9863 265.093 77.792 264.683 78.7295C264.273 79.6377 264.068 80.6338 264.068 81.7178C264.068 82.5674 264.214 83.3584 264.507 84.0908C264.829 84.7939 265.284 85.3945 265.87 85.8926C266.455 86.3613 267.173 86.7422 268.023 87.0352C268.902 87.2988 269.912 87.4307 271.055 87.4307ZM325.396 87.123C326.597 87.123 327.74 86.9473 328.824 86.5957C329.908 86.2441 330.86 85.7461 331.68 85.1016C332.501 84.457 333.13 83.6807 333.57 82.7725C334.039 81.8643 334.244 80.8535 334.185 79.7402H345.699C345.757 82.2012 345.245 84.4863 344.161 86.5957C343.106 88.7051 341.656 90.5215 339.81 92.0449C337.964 93.5684 335.811 94.7695 333.35 95.6484C330.919 96.498 328.34 96.9229 325.616 96.9229C321.924 96.9229 318.687 96.3076 315.904 95.0771C313.121 93.8174 310.806 92.1035 308.961 89.9355C307.086 87.7676 305.665 85.2334 304.698 82.333C303.76 79.4033 303.292 76.2686 303.292 72.9287V71.6104C303.292 68.2705 303.76 65.1504 304.698 62.25C305.635 59.3203 307.042 56.7715 308.917 54.6035C310.792 52.4355 313.106 50.7217 315.86 49.4619C318.643 48.2021 321.866 47.5723 325.528 47.5723C328.458 47.5723 331.168 48.0117 333.658 48.8906C336.148 49.7695 338.301 51 340.118 52.582C341.905 54.1934 343.296 56.1416 344.293 58.4268C345.289 60.6826 345.757 63.2168 345.699 66.0293H334.185C334.244 64.8574 334.068 63.7441 333.658 62.6895C333.248 61.6348 332.647 60.7266 331.856 59.9648C331.065 59.2031 330.113 58.6025 329 58.1631C327.886 57.6943 326.671 57.46 325.352 57.46C323.419 57.46 321.822 57.8555 320.562 58.6465C319.302 59.4375 318.306 60.4922 317.574 61.8105C316.812 63.1289 316.27 64.6377 315.948 66.3369C315.655 68.0361 315.508 69.7939 315.508 71.6104V72.9287C315.508 74.7744 315.655 76.5615 315.948 78.29C316.241 79.9893 316.768 81.4834 317.53 82.7725C318.262 84.0908 319.258 85.1455 320.518 85.9365C321.807 86.7275 323.433 87.123 325.396 87.123ZM373.585 76.3564L368.048 81.498V96H355.831V28.5H368.048V67.084L371.739 62.8652L384.879 48.4512H399.556L381.627 68.2705L402.061 96H387.076L373.585 76.3564ZM414.566 115.204C413.395 115.204 412.369 115.131 411.49 114.984C410.641 114.838 409.688 114.618 408.634 114.325L410.128 105.009C410.626 105.009 411.256 105.023 412.018 105.053C412.809 105.111 413.438 105.141 413.907 105.141C414.874 105.141 415.724 104.833 416.456 104.218C417.218 103.632 417.862 102.987 418.39 102.284C418.917 101.581 419.298 101.054 419.532 100.702C419.796 100.351 420.104 99.8525 420.455 99.208L423.268 93.9785L403.141 48.4512H416.5L427.398 76.3125L428.717 81.1465L430.519 76.4004L441.373 48.4512H454.864L430.738 103.119C430.211 104.32 429.522 105.624 428.673 107.03C427.853 108.437 426.812 109.74 425.553 110.941C424.293 112.143 422.755 113.153 420.938 113.974C419.151 114.794 417.027 115.204 414.566 115.204Z" fill="white"/>
</svg>
